<svg width="34" height="23" viewBox="0 0 34 23" fill="none" xmlns="http://www.w3.org/2000/svg">
<path d="M13.0914 22.2413L13.0823 22.2377L13.0537 22.2231C12.8868 22.137 12.7212 22.0487 12.557 21.9582C10.5829 20.8589 8.73802 19.5677 7.05299 18.1057C4.06882 15.4965 0.906982 11.6247 0.906982 6.85591C0.906982 3.29758 4.10254 0.475703 7.95952 0.475703C9.03174 0.470782 10.0913 0.692436 11.0595 1.12418C12.0277 1.55593 12.8796 2.18665 13.5517 2.96945C14.2241 2.18649 15.0761 1.55567 16.0446 1.12392C17.013 0.692165 18.0728 0.470599 19.1453 0.475703C23.001 0.475703 26.1965 3.29758 26.1965 6.85591C26.1965 11.6259 23.0347 15.4978 20.0505 18.1045C18.3655 19.5665 16.5206 20.8578 14.5465 21.957C14.3823 22.0479 14.2167 22.1366 14.0498 22.2231L14.0212 22.2377L14.0121 22.2425L14.0083 22.2438C13.8676 22.3136 13.7109 22.3501 13.5517 22.3501C13.3926 22.3501 13.2359 22.3136 13.0952 22.2438L13.0914 22.2413Z" fill="white"/>
<path d="M24.5495 20.2327L28.0956 13.7396H25.6501V9.53825L21.9817 16.0313H24.5495V20.2327ZM25.0387 22.5244C23.911 22.5244 22.8512 22.3238 21.8594 21.9228C20.8676 21.5218 20.0048 20.9775 19.2712 20.29C18.5375 19.6025 17.9567 18.794 17.5287 17.8646C17.1007 16.9352 16.8867 15.9422 16.8867 14.8855C16.8867 13.8288 17.1007 12.8357 17.5287 11.9063C17.9567 10.9769 18.5375 10.1685 19.2712 9.48096C20.0048 8.79346 20.8676 8.24919 21.8594 7.84814C22.8512 7.4471 23.911 7.24658 25.0387 7.24658C26.1663 7.24658 27.2261 7.4471 28.2179 7.84814C29.2097 8.24919 30.0725 8.79346 30.8062 9.48096C31.5398 10.1685 32.1207 10.9769 32.5486 11.9063C32.9766 12.8357 33.1906 13.8288 33.1906 14.8855C33.1906 15.9422 32.9766 16.9352 32.5486 17.8646C32.1207 18.794 31.5398 19.6025 30.8062 20.29C30.0725 20.9775 29.2097 21.5218 28.2179 21.9228C27.2261 22.3238 26.1663 22.5244 25.0387 22.5244Z" fill="#894189"/>
<path d="M24.9645 19.7465L28.1882 13.8438H25.965V10.0243L22.6301 15.9271H24.9645V19.7465ZM25.4091 21.8299C24.384 21.8299 23.4206 21.6476 22.5189 21.283C21.6173 20.9184 20.8329 20.4236 20.166 19.7986C19.499 19.1736 18.971 18.4387 18.5819 17.5938C18.1928 16.7488 17.9983 15.8461 17.9983 14.8854C17.9983 13.9248 18.1928 13.022 18.5819 12.1771C18.971 11.3322 19.499 10.5972 20.166 9.97223C20.8329 9.34723 21.6173 8.85244 22.5189 8.48785C23.4206 8.12327 24.384 7.94098 25.4091 7.94098C26.4343 7.94098 27.3977 8.12327 28.2994 8.48785C29.201 8.85244 29.9853 9.34723 30.6523 9.97223C31.3193 10.5972 31.8473 11.3322 32.2364 12.1771C32.6255 13.022 32.82 13.9248 32.82 14.8854C32.82 15.8461 32.6255 16.7488 32.2364 17.5938C31.8473 18.4387 31.3193 19.1736 30.6523 19.7986C29.9853 20.4236 29.201 20.9184 28.2994 21.283C27.3977 21.6476 26.4343 21.8299 25.4091 21.8299Z" fill="white"/>
</svg>
